<?xml version="1.0" encoding="UTF-8"?>
<svg id="Layer_2" data-name="Layer 2" xmlns="http://www.w3.org/2000/svg" viewBox="0 0 94.32 43.93">
  <defs>
    <style>
      .cls-1, .cls-2 {
        fill-rule: evenodd;
      }

      .cls-1, .cls-3 {
        fill: #e7a53f;
      }

      .cls-4, .cls-2 {
        fill: #23558c;
      }

      .cls-5 {
        fill: #22578d;
      }
    </style>
  </defs>
  <g id="Layer_1-2" data-name="Layer 1">
    <g>
      <path class="cls-1" d="M36.21,33.12c-.18.16-.36.31-.55.46-2.69,2.08-5.77,3.08-9.14,3.27-2.13.12-4.23-.11-6.3-.59-2.11-.48-4.14-1.18-6.12-2.04-3.03-1.32-6.16-2.23-9.45-2.56-1.54-.16-3.08-.19-4.62-.09,0,0-.01,0-.02,0,0,.03,0,0,0,.21,0,.22,0,.25,0,.31,0,.18,0,.52,0,.67,0,0,0,0,0,0,0,1.96,0,4.48,0,4.48.06,0,.11,0,.17,0,.85-.02,1.69,0,2.53.08,1.37.14,2.79.29,6.41,1.76,3.62,1.46,5.42,2.69,8.34,3.57,2.12.64,4.28,1.07,6.5,1.23,1.43.1,2.86.08,4.28-.09,1.7-.19,3.35-.58,4.93-1.2,1.08-.42,2.11-.94,3.07-1.58-.02-2.18-.03-5.05-.03-7.89"/>
      <rect class="cls-3" x="0" y="16.06" width="7.16" height="21.2"/>
      <rect class="cls-4" x="0" y="0" width="7.16" height="15.01"/>
      <rect class="cls-4" x="8.21" y="0" width="7.16" height="15.01"/>
      <rect class="cls-4" x="16.42" y="0" width="7.16" height="15.01"/>
      <polygon class="cls-2" points="31.79 0 31.79 7.16 24.63 7.16 31.79 0"/>
      <path class="cls-2" d="M24.63,7.86l.02,7.16h7.14s-.53-5.82-7.16-7.16"/>
      <path class="cls-2" d="M24.63,7.86v7.14l7.16.02c-1.34-6.63-7.16-7.16-7.16-7.16"/>
      <polygon class="cls-2" points="24.89 15.02 24.63 15.02 24.63 14.59 24.89 15.02"/>
      <path class="cls-2" d="M15.37,16.07l-7.16.02v7.14s5.82-.53,7.16-7.16"/>
      <path class="cls-2" d="M15.37,16.07h-7.14l-.02,7.16c6.63-1.34,7.16-7.16,7.16-7.16"/>
      <polygon class="cls-2" points="8.21 16.32 8.21 16.07 8.64 16.07 8.21 16.32"/>
      <path class="cls-2" d="M8.2,24.12v7.14l7.16.02c-1.34-6.63-7.16-7.16-7.16-7.16"/>
      <path class="cls-2" d="M8.2,24.12l.02,7.16h7.14s-.53-5.82-7.16-7.16"/>
      <polygon class="cls-2" points="8.21 31.02 8.21 31.28 8.64 31.28 8.21 31.02"/>
      <rect class="cls-4" x="16.42" y="16.08" width="7.16" height="9.11"/>
      <path class="cls-2" d="M16.42,25.15v.04c1.36,5.89,7.15,6.36,7.15,6.36v-6.38l-7.15-.02Z"/>
      <path class="cls-2" d="M23.56,25.15h-7.13s0,.04,0,.06c.09.6.96,5.21,7.15,6.34l-.02-6.4Z"/>
      <polygon class="cls-2" points="23.58 25.38 23.58 25.15 23.14 25.15 23.58 25.38"/>
      <rect class="cls-4" x="24.63" y="16.08" width="7.16" height="9.11"/>
      <path class="cls-2" d="M31.79,25.15v.04c-1.36,5.89-7.15,6.36-7.15,6.36v-6.38l7.15-.02Z"/>
      <path class="cls-2" d="M24.65,25.15h7.13v.06c-.09.6-.96,5.21-7.15,6.34l.02-6.4Z"/>
      <polygon class="cls-2" points="24.63 25.38 24.63 25.15 25.07 25.15 24.63 25.38"/>
      <path class="cls-2" d="M15.27,16.17l-7.16.02v7.14s5.82-.53,7.16-7.16"/>
      <path class="cls-2" d="M15.27,16.17h-7.14l-.02,7.16c6.63-1.34,7.16-7.16,7.16-7.16"/>
      <polygon class="cls-2" points="8.11 16.42 8.11 16.17 8.55 16.17 8.11 16.42"/>
      <path class="cls-2" d="M8.11,24.22v7.14l7.16.02c-1.34-6.62-7.16-7.16-7.16-7.16"/>
      <path class="cls-2" d="M8.11,24.22l.02,7.16h7.14s-.53-5.82-7.16-7.16"/>
      <polygon class="cls-2" points="8.11 31.13 8.11 31.38 8.55 31.38 8.11 31.13"/>
      <rect class="cls-4" x="16.33" y="16.18" width="7.16" height="9.11"/>
      <path class="cls-2" d="M16.33,25.25v.04c1.36,5.88,7.15,6.36,7.15,6.36v-6.38l-7.15-.02Z"/>
      <path class="cls-2" d="M23.46,25.25h-7.13s0,.04,0,.07c.09.6.96,5.21,7.15,6.34l-.02-6.4Z"/>
      <polygon class="cls-2" points="23.48 25.48 23.48 25.25 23.05 25.25 23.48 25.48"/>
      <rect class="cls-4" x="24.54" y="16.18" width="7.16" height="9.11"/>
      <path class="cls-2" d="M31.69,25.25v.04c-1.36,5.88-7.15,6.36-7.15,6.36v-6.38l7.15-.02Z"/>
      <path class="cls-2" d="M24.56,25.25h7.13v.07c-.09.6-.96,5.21-7.15,6.34l.02-6.4Z"/>
      <polygon class="cls-2" points="24.54 25.48 24.54 25.25 24.98 25.25 24.54 25.48"/>
      <polygon class="cls-3" points="36.37 16.03 38.1 16.03 38.1 29.75 42.39 29.75 42.39 31.21 36.37 31.21 36.37 16.03"/>
      <rect class="cls-3" x="44.57" y="16.03" width="1.73" height="15.18"/>
      <path class="cls-3" d="M49.28,16.26c.72-.18,1.58-.29,2.55-.29,1.37,0,2.55.29,3.36,1.06.65.61.99,1.51.99,2.59,0,1.55-.86,2.79-2.34,3.38v.04c1.76.47,2.82,1.89,2.82,3.88,0,1.26-.41,2.27-1.08,3.02-.86.97-2.27,1.37-4.01,1.37-1.13,0-1.8-.07-2.28-.16v-14.89ZM51.01,22.47h.79c1.42,0,2.64-1.08,2.64-2.68,0-1.4-.65-2.48-2.5-2.48-.4,0-.72.04-.92.11v5.05ZM51.01,29.84c.2.04.49.09.88.09,1.8,0,2.97-1.06,2.97-3.02,0-2.09-1.46-3.09-3.08-3.11h-.77v6.04Z"/>
      <path class="cls-3" d="M58.65,16.26c.74-.2,1.64-.29,2.5-.29,1.51,0,2.64.31,3.42,1.08.74.77,1.06,1.78,1.06,2.98,0,1.94-.9,3.2-2.43,3.9v.04c1.12.34,1.71,1.42,2.05,3.4.34,2.1.65,3.38.85,3.85h-1.76c-.22-.45-.52-1.89-.81-3.76-.34-2.07-.99-2.86-2.48-2.86h-.68v6.62h-1.73v-14.96ZM60.38,23.26h.72c1.67,0,2.77-1.22,2.77-3.04s-.72-2.84-2.59-2.86c-.34,0-.68.02-.9.09v5.81Z"/>
      <path class="cls-3" d="M70.04,26.66l-1.02,4.55h-1.67l3.47-15.18h1.91l3.38,15.18h-1.71l-1.01-4.55h-3.36ZM73.17,25.27l-.79-3.85c-.22-1.08-.43-2.34-.61-3.47h-.09c-.18,1.15-.41,2.46-.61,3.47l-.79,3.85h2.88Z"/>
      <path class="cls-3" d="M78.02,16.26c.74-.2,1.64-.29,2.5-.29,1.51,0,2.64.31,3.42,1.08.74.77,1.06,1.78,1.06,2.98,0,1.94-.9,3.2-2.43,3.9v.04c1.13.34,1.71,1.42,2.05,3.4.34,2.1.65,3.38.85,3.85h-1.76c-.22-.45-.52-1.89-.81-3.76-.34-2.07-.99-2.86-2.48-2.86h-.67v6.62h-1.73v-14.96ZM79.75,23.26h.72c1.67,0,2.77-1.22,2.77-3.04s-.72-2.84-2.59-2.86c-.34,0-.68.02-.9.09v5.81Z"/>
      <path class="cls-3" d="M89.1,31.21v-6.42l-3.33-8.76h1.82l1.35,3.81c.38,1.06.79,2.25,1.13,3.42h.04c.31-1.17.7-2.32,1.1-3.49l1.29-3.74h1.82l-3.49,8.69v6.49h-1.74Z"/>
      <polygon class="cls-4" points="36.8 10.76 36.8 12.56 37.89 12.56 37.89 10.76 38.33 10.76 38.33 14.96 37.89 14.96 37.89 12.99 36.8 12.99 36.8 14.96 36.36 14.96 36.36 10.76 36.8 10.76"/>
      <path class="cls-4" d="M41.04,12.83c0,1.58-.5,2.18-1.11,2.18s-1.07-.74-1.07-2.16.46-2.14,1.13-2.14,1.05.78,1.05,2.11M39.31,12.86c0,.87.15,1.72.64,1.72s.63-.91.63-1.74-.13-1.71-.64-1.71-.63.87-.63,1.72"/>
      <path class="cls-4" d="M41.56,14.96v-4.2h.42l.71,1.97c.16.45.36,1.01.49,1.46h.01c-.04-.66-.05-1.2-.05-1.93v-1.5h.39v4.2h-.42l-.73-2.02c-.15-.42-.32-.9-.46-1.43h-.01c.04.56.05,1.1.05,1.99v1.45h-.4Z"/>
      <path class="cls-4" d="M46.12,14.85c-.17.07-.44.14-.69.14-.34,0-.65-.1-.91-.41-.28-.32-.47-.9-.46-1.67,0-1.63.77-2.19,1.45-2.19.24,0,.43.05.55.12l-.1.41c-.1-.06-.24-.1-.45-.1-.48,0-1,.42-1,1.72s.45,1.71.91,1.71c.15,0,.24-.03.27-.05v-1.37h-.5v-.4h.91v2.09Z"/>
      <path class="cls-4" d="M47.62,10.76h.44v1.99h0c.09-.17.17-.34.24-.5l.72-1.49h.49l-.94,1.79.97,2.4h-.48l-.79-2.03-.22.41v1.62h-.44v-4.2Z"/>
      <path class="cls-4" d="M51.83,12.83c0,1.58-.5,2.18-1.11,2.18s-1.07-.74-1.07-2.16.46-2.14,1.13-2.14,1.05.78,1.05,2.11M50.11,12.86c0,.87.15,1.72.64,1.72s.63-.91.63-1.74-.13-1.71-.64-1.71-.63.87-.63,1.72"/>
      <path class="cls-4" d="M52.36,14.96v-4.2h.42l.71,1.97c.16.45.36,1.01.49,1.46h.01c-.04-.66-.05-1.2-.05-1.93v-1.5h.39v4.2h-.42l-.73-2.02c-.16-.42-.32-.9-.46-1.43h-.01c.04.56.05,1.1.05,1.99v1.45h-.4Z"/>
      <path class="cls-4" d="M56.92,14.85c-.17.07-.44.14-.69.14-.34,0-.65-.1-.91-.41-.28-.32-.47-.9-.47-1.67,0-1.63.77-2.19,1.46-2.19.24,0,.43.05.55.12l-.1.41c-.1-.06-.24-.1-.45-.1-.48,0-1,.42-1,1.72s.45,1.71.91,1.71c.15,0,.24-.03.27-.05v-1.37h-.5v-.4h.91v2.09Z"/>
      <path class="cls-4" d="M58.41,10.82c.18-.05.4-.08.65-.08.35,0,.65.08.85.29.17.17.25.42.25.71,0,.43-.22.77-.6.93h0c.45.14.71.53.71,1.08,0,.35-.1.63-.27.83-.22.27-.58.38-1.02.38-.29,0-.46-.02-.58-.04v-4.12ZM58.85,12.54h.2c.36,0,.67-.3.67-.74,0-.38-.17-.69-.64-.69-.1,0-.18.01-.23.03v1.39ZM58.85,14.58c.05.01.13.02.22.02.46,0,.76-.29.76-.83,0-.58-.37-.85-.78-.86h-.19v1.67Z"/>
      <path class="cls-4" d="M61.26,13.7l-.26,1.26h-.42l.88-4.2h.49l.86,4.2h-.43l-.26-1.26h-.85ZM62.05,13.31l-.2-1.06c-.06-.3-.11-.65-.15-.96h-.02c-.05.32-.1.68-.15.96l-.2,1.06h.73Z"/>
      <path class="cls-4" d="M63.28,10.82c.18-.05.39-.08.64-.08.36,0,.65.09.85.31.19.2.28.5.28.87,0,.39-.08.65-.23.86-.21.31-.57.47-.91.47-.07,0-.13,0-.19,0v1.72h-.44v-4.13ZM63.72,12.83c.05.01.1.02.17.02.43,0,.73-.31.73-.9,0-.43-.17-.82-.65-.82-.1,0-.19.01-.25.03v1.67Z"/>
      <polygon class="cls-4" points="66.02 11.19 65.31 11.19 65.31 10.76 67.16 10.76 67.16 11.19 66.46 11.19 66.46 14.95 66.02 14.95 66.02 11.19"/>
      <rect class="cls-4" x="67.59" y="10.76" width=".44" height="4.2"/>
      <path class="cls-4" d="M68.64,14.4c.13.1.36.17.56.17.4,0,.64-.29.64-.71,0-.39-.21-.62-.51-.87-.3-.23-.73-.62-.73-1.16,0-.63.41-1.1,1.02-1.1.24,0,.45.08.55.16l-.11.41c-.1-.07-.26-.14-.46-.14-.38,0-.56.31-.56.6,0,.42.2.58.57.87.46.35.67.74.67,1.21,0,.72-.47,1.18-1.08,1.18-.27,0-.55-.09-.65-.18l.1-.41Z"/>
      <polygon class="cls-4" points="71.25 11.19 70.54 11.19 70.54 10.76 72.39 10.76 72.39 11.19 71.69 11.19 71.69 14.95 71.25 14.95 71.25 11.19"/>
      <path class="cls-4" d="M74.15,10.76v2.81c0,.75.23,1.01.53,1.01.33,0,.53-.27.53-1.01v-2.81h.44v2.74c0,1.09-.41,1.51-.98,1.51s-.96-.41-.96-1.45v-2.79h.44Z"/>
      <path class="cls-4" d="M76.33,14.96v-4.2h.42l.71,1.97c.16.45.36,1.01.49,1.46h.01c-.04-.66-.05-1.2-.05-1.93v-1.5h.39v4.2h-.42l-.73-2.02c-.15-.42-.32-.9-.46-1.43h-.01c.04.56.05,1.1.05,1.99v1.45h-.4Z"/>
      <rect class="cls-4" x="78.99" y="10.76" width=".44" height="4.2"/>
      <path class="cls-4" d="M80.76,14.96l-.88-4.2h.47l.38,1.97c.09.47.21,1.08.27,1.61h.02c.06-.54.17-1.13.26-1.62l.37-1.96h.47l-.9,4.2h-.45Z"/>
      <polygon class="cls-4" points="83.95 12.96 82.98 12.96 82.98 14.54 84.08 14.54 84.08 14.95 82.54 14.95 82.54 10.76 84.01 10.76 84.01 11.18 82.98 11.18 82.98 12.56 83.95 12.56 83.95 12.96"/>
      <path class="cls-4" d="M84.56,10.82c.19-.06.42-.08.63-.08.38,0,.67.09.87.3.19.21.27.49.27.82,0,.54-.23.88-.62,1.08h0c.29.11.43.4.52.95.08.58.17.94.22,1.06h-.45c-.06-.12-.13-.52-.21-1.04-.08-.57-.25-.79-.63-.79h-.17v1.83h-.44v-4.13ZM85.01,12.76h.18c.42,0,.7-.34.7-.84s-.18-.78-.66-.79c-.09,0-.17,0-.23.03v1.61Z"/>
      <path class="cls-4" d="M86.82,14.4c.13.1.36.17.56.17.4,0,.64-.29.64-.71,0-.39-.21-.62-.51-.87-.31-.23-.73-.62-.73-1.16,0-.63.41-1.1,1.02-1.1.24,0,.45.08.54.16l-.11.41c-.1-.07-.26-.14-.46-.14-.38,0-.56.31-.56.6,0,.42.2.58.57.87.46.35.67.74.67,1.21,0,.72-.47,1.18-1.08,1.18-.26,0-.55-.09-.65-.18l.1-.41Z"/>
      <rect class="cls-4" x="88.97" y="10.76" width=".44" height="4.2"/>
      <polygon class="cls-4" points="90.56 11.19 89.86 11.19 89.86 10.76 91.71 10.76 91.71 11.19 91 11.19 91 14.95 90.56 14.95 90.56 11.19"/>
      <path class="cls-4" d="M92.81,14.96v-1.77l-.85-2.42h.46l.34,1.05c.1.29.2.62.29.95h.01c.08-.32.18-.64.28-.97l.33-1.04h.46l-.89,2.41v1.79h-.44Z"/>
      <path class="cls-5" d="M55.63,33.63h-1.58c.43.42,1.09.83,1.66,1.03-.07.06-.17.18-.21.26-.63-.25-1.36-.75-1.81-1.28v.94h-.32v-.93c-.44.57-1.15,1.08-1.78,1.34-.05-.08-.14-.19-.21-.26.58-.21,1.23-.63,1.65-1.1h-1.57v-.28h1.91v-.5c-.48.05-.99.08-1.45.1,0-.07-.05-.19-.08-.27,1.07-.05,2.35-.18,3.03-.36l.26.26s-.02.01-.1.01c-.35.08-.83.16-1.34.22v.54h1.94v.28ZM52.16,36.57v-1.86h2.83v1.84h-.31v-.16h-2.21v.17h-.3ZM54.67,34.96h-2.21v.46h2.21v-.46ZM52.46,36.14h2.21v-.48h-2.21v.48Z"/>
      <path class="cls-5" d="M56.17,33.56c.29.12.64.32.81.48l-.18.25c-.17-.16-.52-.37-.81-.5l.18-.23ZM60.36,34.03h-.85c.21.4.56.77.92.96-.07.06-.17.17-.22.24-.25-.15-.5-.4-.7-.69v1.02h-1.48v.54c0,.14.06.16.36.16h1.08c.24,0,.28-.06.3-.49.07.05.2.1.28.11-.05.54-.15.66-.57.66h-1.1c-.51,0-.65-.08-.65-.43v-.81h1.49v-.52h-1.29v-.21c-.21.28-.46.53-.7.7-.03-.05-.09-.12-.14-.17-.2.46-.45.97-.64,1.3.02.02.03.04.03.06s0,.04-.01.05l-.32-.21c.22-.37.54-.99.77-1.52l.24.19c.31-.22.61-.58.81-.94h-.86v-.29h.85v-.61h-.64v-.29h.64v-.58l.39.02s-.03.06-.09.07v.5h.97v-.58l.4.02s-.03.06-.09.07v.5h.73v.29h-.73v.61h.86v.29ZM56.42,32.3c.29.14.63.35.81.51l-.19.25c-.16-.17-.5-.4-.79-.54l.18-.23ZM58.25,34.03c-.08.17-.18.34-.29.5h1.53c-.12-.16-.21-.33-.29-.5h-.95ZM58.23,33.75h.97v-.61h-.97v.61Z"/>
      <path class="cls-5" d="M60.83,33.56c.29.12.64.32.81.48l-.18.25c-.17-.16-.52-.37-.81-.5l.17-.23ZM60.78,36.31c.22-.37.54-.99.77-1.52l.24.19c-.21.49-.49,1.07-.7,1.43.02.03.03.05.03.06,0,.02,0,.04-.01.05l-.32-.21ZM61.07,32.3c.28.14.63.35.8.52-.1.13-.14.19-.18.25-.17-.17-.51-.39-.8-.54l.18-.23ZM64.28,34.8l.21.1s-.03.03-.04.04c-.17.39-.44.71-.78.95.37.2.82.33,1.33.4-.07.06-.15.19-.19.27-.55-.09-1.02-.25-1.41-.5-.43.24-.93.4-1.44.5-.03-.08-.09-.2-.15-.26.47-.07.94-.21,1.34-.42-.25-.21-.46-.46-.62-.76l.17-.06h-.39v-.26h1.97ZM62.23,34.42v.52h-.29v-.77h2.93v.76h-.3v-.5h-2.33ZM64.55,32.43v1.43h-2.32v-.25h2.02v-.34h-1.88v-.25h1.88v-.34h-1.99v-.25h2.28ZM62.81,35.07c.14.26.34.48.59.66.26-.18.49-.4.63-.66h-1.22Z"/>
      <path class="cls-5" d="M66.65,33.14c-.36.24-.79.45-1.21.62-.04-.06-.11-.18-.16-.24.81-.29,1.61-.81,2.01-1.28h.45s-.04.07-.09.07c.47.46,1.31.92,2.02,1.15-.07.07-.14.19-.18.26-.38-.14-.8-.34-1.19-.57v.2h-1.64v-.21ZM65.88,33.62h3.18v1.17h-3.18v-1.17ZM66.15,34.57h1.15v-.73h-1.15v.73ZM66.19,36.56v-1.53h2.58v1.53h-.32v-.15h-1.96v.15h-.31ZM66.74,34.54c-.04-.15-.16-.38-.28-.56l.23-.08c.13.17.25.39.3.54l-.24.09ZM68.45,35.26h-1.96v.34h1.96v-.34ZM66.49,36.18h1.96v-.35h-1.96v.35ZM68.23,33.12c-.31-.19-.59-.4-.8-.61-.18.2-.45.41-.75.61h1.55ZM68.78,33.84h-1.21v.73h1.21v-.73ZM68.51,34.02s-.05.04-.09.03c-.07.14-.2.36-.3.5-.04-.01-.16-.07-.21-.09.09-.15.22-.4.28-.57l.32.13Z"/>
      <path class="cls-5" d="M74.16,33.94h-1.81c.3,1.11.9,1.96,1.89,2.33-.08.07-.18.2-.23.29-.97-.4-1.56-1.22-1.9-2.34-.21.92-.72,1.83-1.92,2.34-.05-.08-.14-.19-.22-.26,1.22-.49,1.68-1.42,1.86-2.36h-1.79v-.32h1.84c.06-.49.06-.96.06-1.36l.44.02s-.04.06-.1.08c0,.36,0,.8-.06,1.26h1.96v.32Z"/>
      <path class="cls-5" d="M78.79,35.36v.27h-1.9v.6c0,.34-.14.34-.94.34-.01-.08-.07-.19-.11-.27.17,0,.34,0,.46,0,.25,0,.28,0,.28-.09v-.59h-1.9v-.27h1.9v-.28h.24c.21-.07.41-.19.59-.3h-1.9v-.24h2.23l.05-.02.23.16s-.05.03-.07.04c-.27.2-.69.44-1.07.59v.06h1.9ZM75.04,34.18v.6h-.3v-.84h.38l-.09-1.47.25.07c.22-.07.47-.16.63-.23l.2.21s-.03.02-.05.02c0,0-.02,0-.03,0-.17.06-.46.14-.69.19v.22h.73v.22h-.69v.27h.72v.22h-.69l.02.28h2.65l.03-.28h-.71v-.22h.73l.02-.27h-.73v-.22h.74l.02-.27h-.78v-.22h1.08c-.02.48-.07,1.08-.11,1.5h.37v.84h-.31v-.6h-3.39ZM77.24,32.41s-.04.04-.09.04c-.07.07-.14.15-.22.22.11.07.2.15.27.21l-.17.15c-.07-.07-.16-.15-.27-.23-.15.11-.31.21-.46.29-.04-.04-.11-.11-.16-.15.14-.07.3-.16.43-.27-.1-.07-.21-.13-.31-.18l.16-.14c.1.05.21.12.32.18.08-.07.15-.15.21-.23l.28.1ZM76.46,33.16c.1.05.21.12.31.18.09-.08.18-.17.24-.26l.28.1s-.05.04-.09.03c-.07.08-.15.17-.25.25.11.08.21.17.28.24l-.17.15c-.07-.07-.17-.16-.29-.25-.15.12-.32.22-.47.29-.04-.04-.12-.11-.17-.15.15-.07.3-.17.45-.27-.1-.07-.21-.13-.31-.19l.16-.13Z"/>
      <path class="cls-3" d="M80.5,32.45h3.91v4.1h-.3v-.19h-3.32v.19h-.29v-4.1ZM80.79,36.09h3.32v-3.37h-3.32v3.37ZM82.57,33.92h1.31v.21h-2.86v-.21h1.27v-.23h-.78v-.73h1.87v.73h-.81v.23ZM81.36,34.33h2.17v1.49h-2.17v-1.49ZM81.62,35.62h1.65v-1.08h-1.65v1.08ZM81.78,33.49h1.33v-.33h-1.33v.33ZM81.94,34.76h1.01v.65h-1.01v-.65ZM82.14,35.23h.59v-.3h-.59v.3Z"/>
      <path class="cls-3" d="M87.23,34.65h1.97v.24h-4.2v-.24h1.92v-.3h-1.6v-.22h1.6v-.28h-1.45v-.21h1.45v-.3h-1.91v-.24h1.91v-.29h-1.4v-.22h1.4v-.34l.4.03s-.03.05-.09.06v.25h1.34v.51h.6v.24h-.6v.51h-1.34v.28h1.63v.22h-1.63v.3ZM85.61,36.58v-1.46h3v1.44h-.31v-.15h-2.39v.16h-.3ZM88.3,35.35h-2.39v.31h2.39v-.31ZM85.91,36.19h2.39v-.32h-2.39v.32ZM87.23,33.1h1.03v-.29h-1.03v.29ZM87.23,33.63h1.03v-.3h-1.03v.3Z"/>
      <path class="cls-3" d="M92.79,32.8h1.02v.74h-.29v-.47h-1.74v.47h-.28v-.4l-.21.18c-.14-.2-.42-.48-.68-.71-.16.28-.39.6-.66.9h.53v-.46l.36.03s-.03.05-.09.06v.37h.57v1.51h-1.13v.88c.22-.05.46-.1.69-.16-.11-.15-.23-.29-.35-.43l.24-.13c.31.32.63.75.75,1.05l-.25.15c-.05-.12-.14-.26-.23-.42-.48.13-.98.26-1.29.34,0,.04-.03.06-.06.07l-.14-.34c.1-.02.22-.05.35-.07v-2.41c-.05.05-.09.1-.14.14-.06-.07-.15-.16-.22-.2.43-.38.75-.87.93-1.25l.37.06s-.04.06-.09.06c.27.22.59.52.75.73v-.3h.98v-.54l.39.03s-.03.06-.09.06v.45ZM91.04,33.75h-.84v.38h.84v-.38ZM90.2,34.77h.84v-.4h-.84v.4ZM92.09,34.68v.41h1.55v1.44h-.29v-.19h-1.26v.22h-.29v-3.04h1.66v1.17h-1.37ZM93.17,33.78h-1.08v.64h1.08v-.64ZM93.35,35.36h-1.26v.71h1.26v-.71Z"/>
    </g>
  </g>
</svg>